<svg width="233" height="35" viewBox="0 0 233 35" fill="none" xmlns="http://www.w3.org/2000/svg">
<path d="M33.2041 34.4182C34.5041 34.4182 34.9916 33.9307 34.9916 32.6307V19.4685C34.9916 13.8353 31.3624 9.9895 25.6749 9.9895C21.9375 9.9895 19.0125 11.6145 17.4958 14.3228C15.9791 11.6145 13.0541 9.9895 9.31662 9.9895C3.62913 9.9895 0 13.8353 0 19.4685V32.6307C0 33.9307 0.487525 34.4182 1.78752 34.4182H3.41252C4.71251 34.4182 5.19997 33.9307 5.19997 32.6307V19.306C5.19997 16.3811 6.98748 14.1603 10.0208 14.1603C13.0541 14.1603 14.8958 16.3811 14.8958 19.306V32.6307C14.8958 33.9307 15.3833 34.4182 16.6833 34.4182H18.2541C19.5541 34.4182 20.0416 33.9307 20.0416 32.6307V19.306C20.0416 16.3811 21.8833 14.1603 24.9166 14.1603C27.9499 14.1603 29.7374 16.3811 29.7374 19.306V32.6307C29.7374 33.9307 30.2249 34.4182 31.5249 34.4182H33.2041Z" fill="#051243"/>
<path d="M60.0171 10.3723H58.4463C57.1463 10.3723 56.6587 10.8598 56.6587 12.1598V24.4554C56.6587 27.9761 54.4379 30.4677 50.8629 30.4677C47.288 30.4677 45.0671 27.9761 45.0671 24.4554V12.1598C45.0671 10.8598 44.5796 10.3723 43.2796 10.3723H41.7088C40.4088 10.3723 39.9213 10.8598 39.9213 12.1598V24.4554C39.9213 30.9011 44.6879 34.801 50.9171 34.801C57.1462 34.801 61.8587 30.8469 61.8587 24.4554V12.1598C61.8045 10.914 61.3171 10.3723 60.0171 10.3723Z" fill="#051243"/>
<path d="M67.4373 2.51793V32.634C67.4373 33.934 67.9248 34.4215 69.2248 34.4215H70.7956C72.0956 34.4215 72.5831 33.934 72.5831 32.634V2.51793C72.5831 1.21795 72.0956 0.730469 70.7956 0.730469H69.2248C67.9248 0.730469 67.4373 1.21795 67.4373 2.51793Z" fill="#051243"/>
<path d="M94.8452 12.1598V32.5802C94.8452 33.8802 95.2244 34.3677 96.5786 34.3677H98.2036C99.5036 34.3677 100.045 33.8802 100.045 32.5802V12.1598C100.045 10.8598 99.5577 10.3723 98.2036 10.3723H96.5786C95.2244 10.3723 94.8452 10.914 94.8452 12.1598Z" fill="#051243"/>
<path d="M94.8452 4.08855V2.5719C94.8452 1.27192 95.3327 0.784424 96.6869 0.784424H98.2036C99.5036 0.784424 100.045 1.27192 100.045 2.5719V4.08855C100.045 5.38852 99.5577 5.87601 98.2036 5.87601H96.6869C95.3327 5.87601 94.8452 5.38852 94.8452 4.08855Z" fill="#F57F20"/>
<path d="M90.0787 32.1472C90.0787 30.9556 89.6454 30.5223 88.5079 30.3598C85.7454 29.9264 84.1204 27.489 84.1204 24.5099V14.8684H87.7496C89.0496 14.8684 89.5371 14.3809 89.5371 13.0809V12.2684C89.5371 10.9685 89.0496 10.481 87.7496 10.481H84.1204V5.98525C84.1204 4.68527 83.6329 4.19775 82.3329 4.19775H80.7621C79.4621 4.19775 78.9746 4.68527 78.9746 5.98525V24.4557C78.9746 30.2514 82.8746 34.1514 88.4538 34.7472H88.7787C89.6454 34.7472 90.0787 34.2055 90.0787 32.9055V32.1472Z" fill="#051243"/>
<path d="M133.304 13.2424C135.742 10.8591 138.775 9.66748 142.567 9.66748C146.304 9.66748 149.392 10.8591 151.829 13.2424C154.267 15.6257 155.458 18.6048 155.458 22.2881V32.1462C155.458 33.7712 154.808 34.4212 153.183 34.4212H152.696C151.071 34.4212 150.421 33.7712 150.421 32.1462V31.0629C148.254 33.6087 145.275 34.8545 141.483 34.8545C138.071 34.8545 135.254 33.6628 133.033 31.2795C130.813 28.8963 129.729 25.9172 129.729 22.2339C129.675 18.6048 130.867 15.6257 133.304 13.2424ZM142.621 30.4671C144.896 30.4671 146.738 29.7088 148.2 28.1921C149.663 26.6755 150.367 24.7255 150.367 22.2881C150.367 19.9048 149.663 17.9548 148.2 16.4382C146.738 14.9215 144.896 14.1091 142.621 14.1091C140.4 14.1091 138.558 14.8674 137.096 16.4382C135.633 18.009 134.875 19.9589 134.875 22.2881C134.875 24.6714 135.579 26.6755 137.096 28.1921C138.504 29.7088 140.346 30.4671 142.621 30.4671Z" fill="#051243"/>
<path d="M193.158 9.72144C197.328 9.72144 201.228 11.5631 202.312 15.0297C202.691 16.2213 201.987 17.0338 200.253 17.0338H199.495C198.358 17.0338 197.924 16.6546 197.653 15.8963C197.112 14.488 195.595 13.3505 193.049 13.3505C190.883 13.3505 188.608 14.3255 188.608 16.438C188.608 21.8545 203.178 17.9546 203.178 27.3794C203.178 32.3627 198.303 34.8001 193.212 34.8001C188.824 34.8001 184.653 32.9043 183.462 29.2752C183.083 28.0836 183.733 27.2169 185.52 27.2169H186.387C187.524 27.2169 188.012 27.4878 188.283 28.2461C188.933 30.1419 191.153 31.0627 193.374 31.0627C195.703 31.0627 198.195 30.0336 198.195 27.7044C198.195 22.1254 183.624 26.6211 183.624 16.9796C183.678 12.0506 188.228 9.72144 193.158 9.72144Z" fill="#051243"/>
<path d="M169.651 9.72144C173.822 9.72144 177.722 11.5631 178.805 15.0297C179.184 16.2213 178.48 17.0338 176.747 17.0338H175.988C174.851 17.0338 174.417 16.6546 174.147 15.8963C173.605 14.488 172.088 13.3505 169.542 13.3505C167.376 13.3505 165.101 14.3255 165.101 16.438C165.101 21.8545 179.671 17.9546 179.671 27.3794C179.671 32.3627 174.797 34.8001 169.705 34.8001C165.317 34.8001 161.147 32.9043 159.955 29.2752C159.576 28.0836 160.226 27.2169 162.013 27.2169H162.88C164.017 27.2169 164.505 27.4878 164.776 28.2461C165.426 30.1419 167.647 31.0627 169.867 31.0627C172.197 31.0627 174.688 30.0336 174.688 27.7044C174.688 22.1254 160.117 26.6211 160.117 16.9796C160.117 12.0506 164.667 9.72144 169.651 9.72144Z" fill="#051243"/>
<path d="M210.491 13.2424C212.929 10.8591 215.962 9.66748 219.754 9.66748C223.546 9.66748 226.579 10.8591 229.016 13.2424C231.454 15.6257 232.646 18.6048 232.646 22.2881V32.1462C232.646 33.7712 231.996 34.4212 230.371 34.4212H229.883C228.258 34.4212 227.608 33.7712 227.608 32.1462V31.0629C225.441 33.6087 222.462 34.8545 218.671 34.8545C215.258 34.8545 212.441 33.6628 210.221 31.2795C208 28.8963 206.916 25.9172 206.916 22.2339C206.862 18.6048 208.108 15.6257 210.491 13.2424ZM219.808 30.4671C222.083 30.4671 223.925 29.7088 225.387 28.1921C226.85 26.6755 227.554 24.7255 227.554 22.2881C227.554 19.9048 226.796 17.9548 225.387 16.4382C223.925 14.9215 222.083 14.1091 219.808 14.1091C217.587 14.1091 215.746 14.8674 214.283 16.4382C212.821 18.009 212.062 19.9589 212.062 22.2881C212.062 24.6714 212.766 26.6755 214.283 28.1921C215.691 29.7088 217.533 30.4671 219.808 30.4671Z" fill="#051243"/>
<path d="M126.262 10.3719H122.849C122.362 10.3719 121.874 10.5886 121.495 10.9678L112.124 20.8259V2.51793C112.124 1.54295 111.312 0.730469 110.337 0.730469H108.766C107.791 0.730469 106.979 1.54295 106.979 2.51793V32.634C106.979 33.609 107.791 34.4215 108.766 34.4215H110.337C111.312 34.4215 112.124 33.609 112.124 32.634V23.1009L121.495 33.8256C121.82 34.2048 122.362 34.4756 122.903 34.4756H126.37C127.02 34.4756 127.345 34.2048 127.345 33.8256C127.345 33.609 127.237 33.3382 126.966 33.0673L117.108 21.9092L126.803 11.8344C127.074 11.5636 127.183 11.2928 127.183 11.0761C127.291 10.6428 126.912 10.3719 126.262 10.3719Z" fill="#051243"/>
</svg>
