<svg width="213" height="35" viewBox="0 0 213 35" fill="none" xmlns="http://www.w3.org/2000/svg">
<path d="M33.3163 33.805C34.6207 33.805 35.1098 33.3158 35.1098 32.0115V18.8047C35.1098 13.1525 31.4684 9.2937 25.7617 9.2937C22.0116 9.2937 19.0767 10.9242 17.5549 13.6416C16.0331 10.9242 13.0983 9.2937 9.34813 9.2937C3.64143 9.2937 0 13.1525 0 18.8047V32.0115C0 33.3158 0.489156 33.805 1.79355 33.805H3.42403C4.72842 33.805 5.21756 33.3158 5.21756 32.0115V18.6417C5.21756 15.7068 7.0111 13.4785 10.0547 13.4785C13.0982 13.4785 14.9461 15.7068 14.9461 18.6417V32.0115C14.9461 33.3158 15.4353 33.805 16.7397 33.805H18.3158C19.6202 33.805 20.1093 33.3158 20.1093 32.0115V18.6417C20.1093 15.7068 21.9572 13.4785 25.0008 13.4785C28.0444 13.4785 29.8379 15.7068 29.8379 18.6417V32.0115C29.8379 33.3158 30.3271 33.805 31.6315 33.805H33.3163Z" fill="#051243"/>
<path d="M60.1644 9.72852H58.5883C57.2839 9.72852 56.7948 10.2177 56.7948 11.522V23.8592C56.7948 27.3918 54.5664 29.8919 50.9794 29.8919C47.3923 29.8919 45.1639 27.3918 45.1639 23.8592V11.522C45.1639 10.2177 44.6748 9.72852 43.3704 9.72852H41.7943C40.4899 9.72852 40.0007 10.2177 40.0007 11.522V23.8592C40.0007 30.3267 44.7835 34.2398 51.0337 34.2398C57.2839 34.2398 62.0123 30.2723 62.0123 23.8592V11.522C62.0123 10.2177 61.4688 9.72852 60.1644 9.72852Z" fill="#051243"/>
<path d="M67.611 1.7935V32.0114C67.611 33.3157 68.1001 33.8049 69.4045 33.8049H70.9806C72.285 33.8049 72.7742 33.3157 72.7742 32.0114V1.7935C72.7742 0.489136 72.285 0 70.9806 0H69.4045C68.1545 0 67.611 0.489136 67.611 1.7935Z" fill="#051243"/>
<path d="M95.1116 11.522V32.0115C95.1116 33.3158 95.492 33.805 96.8508 33.805H98.4813C99.7856 33.805 100.329 33.3158 100.329 32.0115V11.522C100.329 10.2177 99.84 9.72852 98.4813 9.72852H96.8508C95.5464 9.72852 95.1116 10.2177 95.1116 11.522Z" fill="#051243"/>
<path d="M165.875 33.805H167.505C168.809 33.805 169.299 33.3158 169.299 32.0115V19.7286C169.299 16.196 171.473 13.6416 175.114 13.6416C178.755 13.6416 180.929 16.196 180.929 19.7286V32.0115C180.929 33.3158 181.419 33.805 182.723 33.805H184.353C185.658 33.805 186.147 33.3158 186.147 32.0115V19.7286C186.147 13.2612 181.364 9.2937 175.06 9.2937C168.809 9.2937 164.081 13.3155 164.081 19.7286V32.0115C164.081 33.3158 164.57 33.805 165.875 33.805Z" fill="#051243"/>
<path d="M211.094 9.72851H207.67C207.181 9.72851 206.692 9.94591 206.311 10.3263L196.909 20.2178V1.84795C196.909 0.869675 196.093 0.0544434 195.115 0.0544434H193.539C192.561 0.0544434 191.745 0.869675 191.745 1.84795V32.0658C191.745 33.0441 192.561 33.8593 193.539 33.8593H195.115C196.093 33.8593 196.909 33.0441 196.909 32.0658V22.5005L206.311 33.2615C206.637 33.6419 207.181 33.9137 207.724 33.9137H211.203C211.855 33.9137 212.181 33.6419 212.181 33.2615C212.181 33.0441 212.072 32.7724 211.8 32.5006L201.909 21.3048L211.637 11.1959C211.909 10.9242 212.018 10.6524 212.018 10.435C212.072 9.94591 211.746 9.72851 211.094 9.72851Z" fill="#051243"/>
<path d="M146.581 9.23926C139.135 9.23926 133.809 14.4567 133.809 21.8482C133.809 28.9678 138.754 34.1853 145.548 34.1853C149.026 34.1853 152.179 32.8266 154.135 30.6526V31.957C154.135 33.2614 154.624 33.7505 155.929 33.7505H157.505C158.809 33.7505 159.299 33.2614 159.299 31.957V21.6851C159.353 14.5111 154.027 9.23926 146.581 9.23926ZM146.635 29.6744C142.287 29.6744 139.135 26.4134 139.135 21.7395C139.135 17.1198 142.287 13.8045 146.635 13.8045C151.037 13.8045 154.19 17.1198 154.19 21.7395C154.19 26.4134 151.037 29.6744 146.635 29.6744Z" fill="#051243"/>
<path d="M95.1116 3.42391V1.90215C95.1116 0.597782 95.6007 0.108643 96.9595 0.108643H98.4813C99.7856 0.108643 100.329 0.597782 100.329 1.90215V3.42391C100.329 4.72828 99.84 5.21742 98.4813 5.21742H96.9595C95.6551 5.21742 95.1116 4.67393 95.1116 3.42391Z" fill="#0062FF"/>
<path d="M118.917 9.18493C115.493 9.18493 112.449 10.5436 110.438 12.7719V1.7935C110.438 0.489136 109.949 0 108.59 0H106.96C105.655 0 105.112 0.489136 105.112 1.7935V32.0114C105.112 33.3157 105.655 33.8049 106.96 33.8049H108.482C109.786 33.8049 110.329 33.3157 110.329 32.0114V31.1418C112.395 33.044 115.058 34.294 118.482 34.294C125.656 34.294 130.711 29.0222 130.711 22.0112C130.765 14.5111 125.656 9.18493 118.917 9.18493ZM117.993 29.6744C113.59 29.6744 110.438 26.4135 110.438 21.7395C110.438 17.1198 113.59 13.8046 117.993 13.8046C122.341 13.8046 125.493 17.1198 125.493 21.7395C125.439 26.4135 122.286 29.6744 117.993 29.6744Z" fill="#051243"/>
<path d="M90.3829 31.5223C90.3829 30.3266 89.9481 29.8918 88.8068 29.7288C86.035 29.294 84.4045 26.8483 84.4045 23.8591V14.1851H88.0459C89.3503 14.1851 89.8394 13.6959 89.8394 12.3915V11.6307C89.8394 10.3263 89.3503 9.83716 88.0459 9.83716H84.4045V5.32621C84.4045 4.02185 83.9153 3.53271 82.6109 3.53271H81.0348C79.7304 3.53271 79.2413 4.02185 79.2413 5.32621V23.8591C79.2413 29.6744 83.1544 33.5875 88.7524 34.1854H89.0786C89.9481 34.1854 90.3829 33.6419 90.3829 32.3375V31.5223Z" fill="#051243"/>
</svg>
